<?xml version="1.0" encoding="UTF-8"?>
<svg version="1.1" xmlns="http://www.w3.org/2000/svg" width="440" height="114">
<path d="M0 0 C145.2 0 290.4 0 440 0 C440 37.62 440 75.24 440 114 C294.8 114 149.6 114 0 114 C0 76.38 0 38.76 0 0 Z " fill="#000000" transform="translate(0,0)"/>
<path d="M0 0 C6.27 0 12.54 0 19 0 C19.33 2.31 19.66 4.62 20 7 C20.54269531 6.57847656 21.08539062 6.15695313 21.64453125 5.72265625 C22.35996094 5.17480469 23.07539063 4.62695312 23.8125 4.0625 C24.52019531 3.51722656 25.22789063 2.97195312 25.95703125 2.41015625 C31.2497597 -1.24314197 37.8487269 -0.4967774 44 0 C51.11141653 1.74832167 55.89540657 7.19695412 60 13 C64.8215827 21.49824109 64.25868387 33.2432908 61.875 42.4375 C59.23205055 49.80349801 54.84294525 55.61787982 47.7578125 59.1484375 C41.26315972 61.15386853 33.70032085 61.47147262 27.328125 58.9375 C24.51905678 57.2151516 22.3256566 55.3256566 20 53 C19.67 64.55 19.34 76.1 19 88 C12.73 88 6.46 88 0 88 C0 58.96 0 29.92 0 0 Z " fill="#F2F2F2" transform="translate(0,26)"/>
<path d="M0 0 C6.27 0 12.54 0 19 0 C19 4.62 19 9.24 19 14 C22.96 14 26.92 14 31 14 C31 19.28 31 24.56 31 30 C27.04 30 23.08 30 19 30 C19.11343964 34.12562069 19.24019838 38.25007045 19.375 42.375 C19.4059375 43.550625 19.436875 44.72625 19.46875 45.9375 C19.50742188 47.05898438 19.54609375 48.18046875 19.5859375 49.3359375 C19.6173584 50.37282715 19.6487793 51.4097168 19.68115234 52.47802734 C19.75954472 55.16809835 19.75954472 55.16809835 22 57 C24.20250992 57.46006346 24.20250992 57.46006346 26.625 57.625 C28.06875 57.74875 29.5125 57.8725 31 58 C31 63.28 31 68.56 31 74 C13.30789755 74.55869797 13.30789755 74.55869797 6.125 68.625 C1.98468115 63.51048848 0.62450468 60.41512067 0.70703125 53.73046875 C0.71127609 53.04946609 0.71552094 52.36846344 0.71989441 51.66682434 C0.7365939 49.50663541 0.77422688 47.34740358 0.8125 45.1875 C0.82755826 43.71681042 0.84124466 42.24610611 0.85351562 40.77539062 C0.88646786 37.18328643 0.93818827 33.59173674 1 30 C-1.97 30 -4.94 30 -8 30 C-8 31.32 -8 32.64 -8 34 C-8.89203125 34.04898438 -9.7840625 34.09796875 -10.703125 34.1484375 C-11.87359375 34.22320312 -13.0440625 34.29796875 -14.25 34.375 C-15.99023438 34.47941406 -15.99023438 34.47941406 -17.765625 34.5859375 C-20.76857315 34.97037289 -22.55466677 35.26134564 -25 37 C-27.44365122 40.61854725 -27.3445699 44.39098626 -27.4140625 48.609375 C-27.43342865 49.33618469 -27.4527948 50.06299438 -27.4727478 50.81182861 C-27.53234271 53.12443448 -27.57884758 55.43709067 -27.625 57.75 C-27.66319836 59.32163582 -27.70225117 60.89325113 -27.7421875 62.46484375 C-27.83963062 66.30978671 -27.9193553 70.15452137 -28 74 C-34.27 74 -40.54 74 -47 74 C-47 54.2 -47 34.4 -47 14 C-40.73 14 -34.46 14 -28 14 C-27.67 16.97 -27.34 19.94 -27 23 C-26.01 21.88625 -26.01 21.88625 -25 20.75 C-19.32192175 15.22920923 -14.4482442 13.75802043 -6.5 13.75 C-3.2825 13.87375 -3.2825 13.87375 0 14 C0 9.38 0 4.76 0 0 Z " fill="#F1F1F1" transform="translate(183,12)"/>
<path d="M0 0 C5.56616863 4.26977465 8.82016163 10.12845365 11.015625 16.71484375 C11.94189559 27.39342037 11.39080975 37.26462205 4.21875 45.87109375 C2.25150166 47.72817618 0.27441899 49.22966602 -1.984375 50.71484375 C-2.60570312 51.14667969 -3.22703125 51.57851562 -3.8671875 52.0234375 C-11.79761238 56.51734493 -23.23240653 56.08546007 -31.90234375 54.01953125 C-34.13952794 53.10309435 -35.99532919 52.08364947 -37.984375 50.71484375 C-38.92990234 50.09609375 -38.92990234 50.09609375 -39.89453125 49.46484375 C-45.87526885 44.995163 -49.60103938 38.02276829 -50.984375 30.71484375 C-51.87656384 20.87151444 -50.4767739 11.81001977 -44.296875 3.83984375 C-32.96510345 -8.15511036 -13.35268 -8.64770024 0 0 Z " fill="#F4F4F4" transform="translate(117.984375,31.28515625)"/>
<path d="M0 0 C5.56616863 4.26977465 8.82016163 10.12845365 11.015625 16.71484375 C11.87085119 26.57437993 11.43577867 35.11822792 6.015625 43.71484375 C0.81527782 49.82475735 -5.12324513 53.80710218 -13.12036133 55.0456543 C-24.52286243 55.9590396 -33.79149059 54.59195662 -42.90625 47.14453125 C-48.74772764 41.15846258 -51.16546636 32.9107959 -51.484375 24.71484375 C-51.15577525 15.98995376 -48.45744511 7.76575711 -41.984375 1.71484375 C-29.15693363 -7.12879063 -13.47106697 -8.72437211 0 0 Z " fill="#F4F4F4" transform="translate(428.984375,31.28515625)"/>
<path d="M0 0 C6.97247886 3.87060238 12.77273844 8.94187313 16.0859375 16.30078125 C18.38796439 24.78026564 18.59666469 35.05108955 14.875 43.125 C10.66435453 49.9584777 5.68067104 55.0538103 -1.984375 57.78125 C-9.89984259 59.46881162 -20.8121827 60.24761377 -28.23046875 56.6640625 C-34.93451884 52.17563664 -40.93323353 47.22968957 -43.5078125 39.37109375 C-45.34236998 29.66861016 -45.44794568 19.03197231 -40.0625 10.4375 C-31.11909322 -1.26817419 -13.71928461 -5.64202566 0 0 Z " fill="#F5F5F5" transform="translate(300.0625,27.5625)"/>
<path d="M0 0 C0 5.28 0 10.56 0 16 C-2.31 16.33 -4.62 16.66 -7 17 C-9.37158027 19.0285831 -9.37158027 19.0285831 -10 23 C-6.7 23 -3.4 23 0 23 C0 28.28 0 33.56 0 39 C-3.63 39 -7.26 39 -11 39 C-11 53.52 -11 68.04 -11 83 C-16.94 83 -22.88 83 -29 83 C-29 68.48 -29 53.96 -29 39 C-31.31 39 -33.62 39 -36 39 C-36 34.05 -36 29.1 -36 24 C-33.69 24 -31.38 24 -29 24 C-29.12375 22.2675 -29.12375 22.2675 -29.25 20.5 C-29.2196155 14.76745709 -27.25593474 10.41630925 -23.3515625 6.234375 C-15.94667402 -0.42679105 -9.74639455 -0.19689686 0 0 Z " fill="#F5F5F5" transform="translate(253,3)"/>
<path d="M0 0 C6.27 0 12.54 0 19 0 C19 26.07 19 52.14 19 79 C12.73 79 6.46 79 0 79 C0 52.93 0 26.86 0 0 Z " fill="#EFEFEF" transform="translate(324,7)"/>
<path d="M0 0 C5.94 0 11.88 0 18 0 C18 19.8 18 39.6 18 60 C12.06 60 6.12 60 0 60 C0 40.2 0 20.4 0 0 Z " fill="#F6F6F6" transform="translate(353,26)"/>
<path d="M0 0 C3.19531348 2.15497886 4.32828916 3.18793775 5.6875 6.8125 C6.3727889 13.0467254 6.39691597 18.51333433 2.6875 23.8125 C-1.25236896 27.43926679 -4.51691353 27.31252642 -9.6796875 27.16796875 C-13.25604613 26.68510727 -14.97166419 25.53088997 -17.3125 22.8125 C-19.38842213 19.47777402 -19.6102515 16.77352003 -19.625 12.875 C-19.64175781 11.85535156 -19.65851562 10.83570313 -19.67578125 9.78515625 C-19.14200449 5.41737007 -17.48688513 2.78556196 -14.125 0 C-9.10335316 -2.12025089 -4.98558636 -1.78728568 0 0 Z " fill="#040404" transform="translate(38.3125,43.1875)"/>
<path d="M0 0 C3.64642615 2.12708192 5.43918047 4.13188204 7 8 C7.62660358 13.23141131 8.15378955 19.0063741 5.25 23.625 C2.00693003 27.04824053 -0.72959275 28.29879216 -5.4375 28.4375 C-9.07404205 28.35376383 -9.87317688 28.09444275 -12.9375 25.8125 C-16.67247878 20.71934711 -17.77972412 16.32176327 -17 10 C-14.47907131 0.7443275 -8.97172821 -1.32322085 0 0 Z " fill="#030303" transform="translate(414,42)"/>
<path d="M0 0 C3.64900982 2.12858906 5.42555741 4.13608413 7 8 C7.71196638 14.12106163 7.72527434 19.86169056 4 25 C0.38080177 28.1934102 -3.17296332 28.58131077 -7.84765625 28.41796875 C-11.41693901 27.72484124 -12.90727538 25.85371539 -15 23 C-17.63904715 18.35025027 -17.85466958 13.13794745 -16.46484375 8.03515625 C-13.31871665 -0.09663674 -8.04062389 -1.18589428 0 0 Z " fill="#030303" transform="translate(103,42)"/>
<path d="M0 0 C3.33972079 1.71575508 5.45134716 4.07726568 7.375 7.3125 C8.5561473 12.39143339 8.58309513 16.4041607 6.8125 21.25 C4.73298015 24.40513357 3.30563525 26.13159747 0 28 C-3.86575783 28.76457687 -7.35441555 28.89634746 -10.87890625 26.9765625 C-13.55569164 24.84803436 -14.91310194 23.26069418 -16 20 C-16.1447963 18.04524991 -16.22067502 16.0848862 -16.25 14.125 C-16.28867187 12.58199219 -16.28867187 12.58199219 -16.328125 11.0078125 C-15.87178596 6.82470467 -14.14152889 4.27324377 -11.375 1.1875 C-7.61965252 -0.69017374 -4.10310386 -0.76088754 0 0 Z " fill="#030303" transform="translate(291,42)"/>
<path d="M0 0 C3.33220575 2.34403439 4.82267602 5.03456943 5.5625 9.0625 C4.86055299 12.72822327 3.62500238 14.37499762 1 17 C-2.76651057 19.30570459 -5.52129885 19.26877409 -9.8046875 18.66796875 C-13.74923741 17.46775872 -14.93269347 15.53442729 -17 12 C-17.65779752 8.84257189 -17.67580788 7.10236343 -15.97265625 4.32421875 C-11.44779475 -1.43844681 -6.75476176 -1.91641227 0 0 Z " fill="#F1F1F1" transform="translate(368,1)"/>
</svg>
